:SAMPLES-PER-SECOND 24
:FULLY-SPECIFIED
:DEGREES
293
root  8.70788 38.3568 39.1343 -15.7176 -74.543 7.38519
RightUpLeg  -11.2384 -35.6797 -8.14153
RightLeg  31.9054 1.96754 1.08634
RightFoot  -7.93641 0.0720358 -4.22459
RightToes  -1.74623e-010 0 -2.59999e-017
Spine  10.2642 -0.191084 -18.7691
Spine1  14.6405 -6.09554 11.3886
HEad  -28.4258 -44.0124 27.1559
LeftShoulder1  2.13604 -3.90564 -22.5296
LeftArm  4.44878 0.0656134 -33.1605
LeftForeArm  84.6627 -79.6049 -91.1948
LeftHand  0.251451 8.25002 11.2841
RightShoulder  3.37455 5.44412 31.8333
RightArm  -14.0571 0.450435 25.1437
RightForeArm  25.7461 70.6049 31.457
RightHand  -0.688832 -2.00097 -23.3342
LeftUpLeg  12.2165 32.0275 17.6788
LeftLeg  36.7314 20.1683 15.7973
LeftFoot  -2.13827 2.30391 -27.9532
LeftToes  -6.27559e-011 -2.10356e-011 8.24929e-012
294
root  8.02831 38.211 39.4612 -17.691 -77.9375 8.17535
RightUpLeg  -9.99909 -30.8164 -8.34554
RightLeg  33.2532 -0.386509 -0.505173
RightFoot  -8.92264 -0.00573637 -2.48984
RightToes  -1.74623e-010 0 -2.59999e-017
Spine  10.2814 -1.2023 -16.5129
Spine1  16.5586 -7.1502 11.4345
HEad  -30.0633 -43.4895 26.6191
LeftShoulder1  2.21376 -3.83969 -23.9186
LeftArm  4.69315 -1.01288 -36.1255
LeftForeArm  78.9352 -79.6026 -84.3742
LeftHand  0.287877 8.54265 11.5889
RightShoulder  3.71687 5.85223 33.8492
RightArm  -13.6302 1.73849 24.0147
RightForeArm  19.6843 66.2114 24.6263
RightHand  -0.60096 -2.47222 -23.6216
LeftUpLeg  10.3587 29.2858 18.0111
LeftLeg  45.1343 20.0669 20.6301
LeftFoot  5.19345 3.43651 -23.8526
LeftToes  -6.27559e-011 -2.10356e-011 8.24929e-012
295
root  7.41081 38.0261 39.8664 -19.0241 -79.8781 8.52899
RightUpLeg  -8.93147 -28.2809 -9.04884
RightLeg  35.1281 0.675972 0.25833
RightFoot  -10.2694 -0.0645943 -0.706299
RightToes  -1.74623e-010 0 -2.59999e-017
Spine  10.6162 -2.53065 -14.1666
Spine1  17.8248 -8.29425 11.1913
HEad  -30.5756 -43.4063 25.3443
LeftShoulder1  2.26972 -3.82682 -24.7755
LeftArm  6.06683 -2.4886 -41.076
LeftForeArm  64.9935 -79.0162 -70.2521
LeftHand  0.338115 8.75378 12.5473
RightShoulder  3.8457 5.99469 34.6008
RightArm  -12.6714 1.68949 24.8828
RightForeArm  16.7371 60.353 18.6053
RightHand  -0.319064 -3.87499 -23.8991
LeftUpLeg  6.31859 25.0052 17.2168
LeftLeg  52.8902 14.4246 19.8003
LeftFoot  11.7048 2.72018 -13.611
LeftToes  -6.27559e-011 -2.10356e-011 8.24929e-012
296
root  6.81069 38.0657 40.3593 -21.442 -81.3852 10.8257
RightUpLeg  -7.80578 -26.1948 -9.74352
RightLeg  34.7563 0.177805 -0.117674
RightFoot  -10.8001 -0.0686799 -0.827741
RightToes  -1.74623e-010 0 -2.59999e-017
Spine  10.1287 -3.60901 -12.5276
Spine1  18.4997 -9.02108 11.3616
HEad  -29.7204 -43.4865 23.8888
LeftShoulder1  2.31062 -3.82144 -25.3826
LeftArm  9.53438 -4.2776 -46.7102
LeftForeArm  51.3467 -77.8341 -58.8459
LeftHand  0.453814 9.05587 15.0358
RightShoulder  3.81327 5.96254 34.3964
RightArm  -10.9518 -0.378679 26.7481
RightForeArm  16.264 54.0284 14.2363
RightHand  0.0123531 -5.50261 -22.4709
LeftUpLeg  2.3112 20.6183 15.6069
LeftLeg  57.0042 6.71943 11.4543
LeftFoot  11.5596 1.92307 -9.78939
LeftToes  -6.27559e-011 -2.10356e-011 8.24929e-012
297
root  6.16675 38.3916 40.9145 -30.7286 -83.3697 20.4264
RightUpLeg  -6.2208 -23.5257 -10.8798
RightLeg  32.2891 -0.0954586 -0.30971
RightFoot  -10.1304 -0.0747173 0.574715
RightToes  -1.74623e-010 0 -2.59999e-017
Spine  8.92441 -3.9432 -11.9312
Spine1  19.123 -9.09039 11.4535
HEad  -28.681 -43.0893 23.1486
LeftShoulder1  2.36258 -3.84133 -26.0303
LeftArm  14.8023 -6.20414 -51.2776
LeftForeArm  44.1889 -77.2293 -56.0588
LeftHand  0.488811 8.97255 16.4096
RightShoulder  3.78414 5.94843 34.1507
RightArm  -6.57133 -3.02799 27.9394
RightForeArm  14.3452 47.661 11.2731
RightHand  0.0425479 -5.6776 -20.9719
LeftUpLeg  -0.460378 18.1606 14.1691
LeftLeg  57.2277 2.73546 5.11588
LeftFoot  9.12495 2.11257 -11.9777
LeftToes  -6.27559e-011 -2.10356e-011 8.24929e-012
298
root  5.52801 38.8506 41.4883 -53.2763 -85.2308 43.2284
RightUpLeg  -4.03023 -21.0737 -12.3113
RightLeg  28.315 1.33869 0.551229
RightFoot  -8.64647 -0.0996558 1.7817
RightToes  -1.74623e-010 0 -2.59999e-017
Spine  7.86824 -3.79837 -11.9744
Spine1  19.4871 -8.73092 10.9808
HEad  -27.5598 -42.4638 22.723
LeftShoulder1  2.33952 -3.88396 -25.5129
LeftArm  20.715 -8.51894 -55.5695
LeftForeArm  41.6099 -77.3228 -58.6415
LeftHand  0.356716 8.46584 14.2882
RightShoulder  3.70986 5.89947 33.5722
RightArm  1.53706 -5.22092 29.2669
RightForeArm  9.17958 40.5177 8.9922
RightHand  -0.214894 -4.21346 -20.3664
LeftUpLeg  -1.89492 17.535 13.2694
LeftLeg  52.8893 2.69733 4.28838
LeftFoot  8.89692 2.24931 -12.8636
LeftToes  -6.27559e-011 -2.10356e-011 8.24929e-012
299
root  4.97408 39.229 42.0933 -85.9398 -86.1687 76.2424
RightUpLeg  -2.06929 -18.9998 -13.2022
RightLeg  24.037 1.87277 0.702024
RightFoot  -6.92575 -0.125931 2.04766
RightToes  -1.74623e-010 0 -2.59999e-017
Spine  7.25052 -3.81551 -11.7966
Spine1  19.2345 -8.43968 10.4942
HEad  -25.5844 -41.6242 21.6905
LeftShoulder1  2.23198 -3.90351 -23.9059
LeftArm  26.306 -12.0514 -59.909
LeftForeArm  44.8743 -77.9992 -67.2942
LeftHand  0.25719 8.22004 11.6178
RightShoulder  3.58535 5.80128 32.6523
RightArm  12.7347 -6.54254 31.4803
RightForeArm  0.909072 32.3887 7.1086
RightHand  -0.532304 -2.08409 -18.6042
LeftUpLeg  -2.25234 16.5154 12.9335
LeftLeg  44.6917 5.47496 6.15526
LeftFoot  8.11394 2.04438 -12.18
LeftToes  -6.27559e-011 -2.10356e-011 8.24929e-012
300
root  4.46792 39.4644 42.7293 -121.471 -85.781 112.113
RightUpLeg  -0.705816 -16.9314 -13.9012
RightLeg  20.7063 2.28205 0.739522
RightFoot  -5.66932 -0.201462 3.27114
RightToes  -1.74623e-010 0 -2.59999e-017
Spine  6.91972 -3.82633 -12.121
Spine1  18.7902 -8.38149 10.2552
HEad  -23.2143 -40.1034 20.5662
LeftShoulder1  2.08211 -3.78621 -22.2463
LeftArm  31.23 -17.7193 -64.4531
LeftForeArm  57.5535 -78.6597 -85.1972
LeftHand  0.231098 8.08819 11.0781
RightShoulder  3.54841 5.8072 32.2299
RightArm  25.577 -7.12154 33.3241
RightForeArm  -9.43765 25.3422 5.70544
RightHand  -0.567788 -0.908532 -14.6949
LeftUpLeg  -1.50301 14.2288 12.8414
LeftLeg  33.5762 10.1712 7.49566
LeftFoot  6.88847 2.11746 -13.4151
LeftToes  -6.27559e-011 -2.10356e-011 8.24929e-012
301
root  3.98408 39.4851 43.4427 -147.888 -84.1024 138.288
RightUpLeg  0.169726 -15.2713 -14.8264
RightLeg  19.3402 4.00447 1.35229
RightFoot  -5.38577 -0.264842 4.38356
RightToes  -1.74623e-010 0 -2.59999e-017
Spine  6.87746 -3.6368 -12.875
Spine1  19.1727 -8.34977 10.0511
HEad  -21.327 -38.0127 19.9902
LeftShoulder1  1.89546 -3.51433 -20.5903
LeftArm  35.8169 -25.8363 -70.3626
LeftForeArm  73.077 -78.1076 -105.414
LeftHand  0.204195 7.76497 11.2125
RightShoulder  3.60263 5.92265 32.3377
RightArm  28.4869 -7.45315 33.9842
RightForeArm  -9.21384 19.9027 7.497
RightHand  -0.352459 -1.57587 -10.5913
LeftUpLeg  0.257596 10.9482 12.7893
LeftLeg  21.7517 12.9 5.93086
LeftFoot  7.49579 2.18925 -13.4244
LeftToes  -6.27559e-011 -2.10356e-011 8.24929e-012
302
root  3.50702 39.2268 44.3234 -165.427 -82.0517 154.986
RightUpLeg  0.421073 -14.155 -15.7104
RightLeg  20.4243 5.65712 2.11957
RightFoot  -6.13493 -0.260274 4.80707
RightToes  -1.74623e-010 0 -2.59999e-017
Spine  7.0796 -3.69076 -13.0377
Spine1  20.2991 -8.52305 9.7167
HEad  -19.1547 -35.4788 19.0227
LeftShoulder1  1.70134 -3.20759 -18.8093
LeftArm  40.4361 -35.2232 -77.8761
LeftForeArm  83.6502 -76.5516 -120.477
LeftHand  0.234974 8.08185 11.2514
RightShoulder  3.62983 5.99703 32.3242
RightArm  17.8007 -7.50293 34.1863
RightForeArm  3.55795 14.148 11.1931
RightHand  -0.242425 -2.38844 -9.09874
LeftUpLeg  1.65661 6.73967 12.893
LeftLeg  15.5633 10.7941 3.61393
LeftFoot  6.55689 2.08523 -13.465
LeftToes  -6.27559e-011 -2.10356e-011 8.24929e-012
303
root  3.04988 38.7572 45.3156 -176.221 -79.924 164.814
RightUpLeg  -0.312188 -12.3807 -16.5888
RightLeg  23.5593 6.74456 3.0043
RightFoot  -7.73396 -0.247001 6.23359
RightToes  -1.74623e-010 0 -2.59999e-017
Spine  7.63752 -3.99616 -13.9006
Spine1  21.0774 -9.26013 9.7885
HEad  -15.9819 -32.4524 17.2362
LeftShoulder1  1.50432 -2.87174 -16.9067
LeftArm  45.3164 -43.849 -86.6276
LeftForeArm  89.0363 -74.8408 -129.632
LeftHand  0.272996 8.3879 11.5979
RightShoulder  3.59007 5.97025 32.0106
RightArm  7.64225 -7.24535 34.1226
RightForeArm  11.3536 9.88463 12.9068
RightHand  -0.329798 -1.96746 -10.9038
LeftUpLeg  1.58432 5.94998 13.0975
LeftLeg  18.6191 6.51584 2.79802
LeftFoot  0.774963 1.62537 -15.3676
LeftToes  -6.27559e-011 -2.10356e-011 8.24929e-012
304
root  2.64225 38.1683 46.2685 -179.801 -77.3447 167.471
RightUpLeg  -2.35268 -9.1742 -17.8695
RightLeg  28.1595 7.17599 3.93534
RightFoot  -9.49465 -0.18793 7.66966
RightToes  -1.74623e-010 0 -2.59999e-017
Spine  8.41673 -3.72676 -17.2244
Spine1  21.232 -10.2115 11.3307
HEad  -13.1645 -29.3906 15.7393
LeftShoulder1  1.31024 -2.45709 -15.1425
LeftArm  50.9768 -50.4406 -96.0795
LeftForeArm  90.9184 -73.7391 -133.873
LeftHand  0.221065 7.77573 11.9349
RightShoulder  3.55186 5.92444 31.7887
RightArm  3.82393 -7.26591 33.4796
RightForeArm  9.24356 9.82997 12.7959
RightHand  -0.492867 -1.06786 -13.1664
LeftUpLeg  1.34236 10.2116 13.4487
LeftLeg  25.143 3.39308 2.08411
LeftFoot  -5.94316 0.809797 -16.3472
LeftToes  -6.27559e-011 -2.10356e-011 8.24929e-012
305
root  2.2823 37.7123 47.0578 -179.412 -74.9156 166.381
RightUpLeg  -4.91464 -6.46656 -19.3457
RightLeg  32.5796 6.0526 3.92202
RightFoot  -9.72623 -0.178546 7.95854
RightToes  -1.74623e-010 0 -2.59999e-017
Spine  8.76589 -3.07932 -21.6547
Spine1  21.231 -10.9134 13.1687
HEad  -11.8547 -26.5895 15.2303
LeftShoulder1  1.19367 -2.13932 -14.2377
LeftArm  56.2725 -54.4736 -103.616
LeftForeArm  91.7938 -72.8614 -136.681
LeftHand  0.274868 8.1346 12.6321
RightShoulder  3.61831 5.97228 32.3024
RightArm  2.37797 -8.57009 33.0734
RightForeArm  3.6486 13.1004 11.119
RightHand  -0.597068 -0.584348 -14.4068
LeftUpLeg  1.2487 16.2179 13.848
LeftLeg  30.1175 0.113449 0.441914
LeftFoot  -9.78482 0.268728 -15.4084
LeftToes  -6.27559e-011 -2.10356e-011 8.24929e-012
